<svg xmlns="http://www.w3.org/2000/svg" shape-rendering="geometricPrecision" text-rendering="geometricPrecision" image-rendering="optimizeQuality" fill-rule="evenodd" clip-rule="evenodd" viewBox="0 0 512 509.77"><path d="M244.48 209.89c1.8 18.05-22.84 51.63-33.52 62.51-21.3 21.66-40.94 45.37-73.68 69.79-23.43 17.47-29.49 19.61-57.67 19.22l-1.02-.05c-10.72 0-21.43 2.45-31.23 7.36l-14.85-14.85c-1.98-1.98-5.21-1.98-7.18 0L1.48 377.7c-1.97 1.99-1.97 5.22 0 7.2l14.79 14.78a69.844 69.844 0 0 0-7.46 30.47l-.04 1.04c0 17.86 6.81 35.74 20.44 49.36 13.58 13.58 31.43 20.39 49.35 20.42h.06c10.81 0 21.61-2.5 31.47-7.47l14.78 14.79c1.98 1.97 5.21 1.97 7.19 0l23.84-23.85c1.98-1.97 1.98-5.19 0-7.18l-14.85-14.85c4.91-9.8 7.36-20.51 7.36-31.23 0-29.62 1.48-35.84 20.2-60.62 24.44-32.39 47.49-50.85 68.75-71.76 10.86-10.68 44.46-33.54 62.5-33.53l-55.38-55.38zM355.29.95c70.35 38.85 119.62 87.62 155.76 155.77 1.01 1.87 1.5 3.96 0 5.46l-17.61 17.61L332.22 18.56 349.83.95c1.5-1.5 3.61-1.01 5.46 0zm11.67 144.1c12.77 12.78 12.77 33.49-.01 46.27-12.77 12.77-33.48 12.78-46.26 0-12.78-12.78-12.78-33.5 0-46.27 12.78-12.78 33.49-12.78 46.27 0zm114.96 46.27-10.68 10.67L310.01 40.77l10.68-10.68 161.23 161.23zm-22.21 22.2L357.59 315.65c-1.47 1.46-3.98 1.46-5.46-.01l-24.44-24.45 5.73-5.74c13.43-13.43.19-17.84-13.19-31.23l-62.43-62.43c-13.39-13.38-17.86-26.58-31.24-13.2l-5.74 5.74-24.46-24.45c-1.47-1.48-1.5-3.96 0-5.46L298.48 52.29l161.23 161.23zm-354.15 217.6c0 14.68-11.9 26.59-26.59 26.59-14.68 0-26.58-11.91-26.58-26.59 0-14.69 11.9-26.59 26.58-26.59 14.69 0 26.59 11.9 26.59 26.59z" fill="#5e6569" /></svg>